<?xml version="1.0" encoding="UTF-8" standalone="no"?>
<!-- Created with Inkscape (http://www.inkscape.org/) -->

<svg
   xmlns:dc="http://purl.org/dc/elements/1.1/"
   xmlns:cc="http://creativecommons.org/ns#"
   xmlns:rdf="http://www.w3.org/1999/02/22-rdf-syntax-ns#"
   xmlns:svg="http://www.w3.org/2000/svg"
   xmlns="http://www.w3.org/2000/svg"
   xmlns:sodipodi="http://sodipodi.sourceforge.net/DTD/sodipodi-0.dtd"
   xmlns:inkscape="http://www.inkscape.org/namespaces/inkscape"
   id="svg3312"
   version="1.1"
   inkscape:version="0.48.4 r9939"
   width="1115"
   height="252"
   sodipodi:docname="uge4_5oktaver_nummereret.pdf">
  <metadata
     id="metadata3318">
    <rdf:RDF>
      <cc:Work
         rdf:about="">
        <dc:format>image/svg+xml</dc:format>
        <dc:type
           rdf:resource="http://purl.org/dc/dcmitype/StillImage" />
        <dc:title></dc:title>
      </cc:Work>
    </rdf:RDF>
  </metadata>
  <defs
     id="defs3316" />
  <sodipodi:namedview
     pagecolor="#ffffff"
     bordercolor="#666666"
     borderopacity="1"
     objecttolerance="10"
     gridtolerance="10"
     guidetolerance="10"
     inkscape:pageopacity="0"
     inkscape:pageshadow="2"
     inkscape:window-width="1680"
     inkscape:window-height="1011"
     id="namedview3314"
     showgrid="false"
     inkscape:zoom="1.5743132"
     inkscape:cx="439.89644"
     inkscape:cy="145.99341"
     inkscape:window-x="0"
     inkscape:window-y="0"
     inkscape:window-maximized="1"
     inkscape:current-layer="svg3312"
     fit-margin-left="0.7" />
  <path
     style="fill:#000000"
     d="M 5,97.5 5,31 l 109,0 109,0 0,66.5 0,66.5 -109,0 -109,0 0,-66.5 z m 31,46.5 0,-19 -4,0 -4,0 0,-46.5 0,-46.5 -11,0 -11,0 0,65.5 0,65.5 15,0 15,0 0,-19 z m 31,0 0,-19 -4,0 -4,0 0,-46.5 0,-46.5 -6.5,0 -6.5,0 0,46.5 0,46.5 -4.5,0 -4.5,0 0,19 0,19 15,0 15,0 0,-19 z M 98,97.5 98,32 87.5,32 77,32 l 0,46.5 0,46.5 -4.5,0 -4.5,0 0,19 0,19 15,0 15,0 0,-65.5 z m 31,46.5 0,-19 -3.5,0 -3.5,0 0,-46.5 0,-46.5 -11.5,0 -11.5,0 0,65.5 0,65.5 15,0 15,0 0,-19 z m 31,0 0,-19 -4,0 -4,0 0,-46.5 0,-46.5 -6,0 -6,0 0,46.5 0,46.5 -5,0 -5,0 0,19 0,19 15,0 15,0 0,-19 z m 31,0 0,-19 -4.5,0 -4.5,0 0,-46.5 0,-46.5 -6,0 -6,0 0,46.5 0,46.5 -4.5,0 -4.5,0 0,19 0,19 15,0 15,0 0,-19 z m 31,-46.5 0,-65.5 -11,0 -11,0 0,46.5 0,46.5 -4,0 -4,0 0,19 0,19 15,0 15,0 0,-65.5 z"
     id="path3341"
     inkscape:connector-curvature="0" />
  <flowRoot
     xml:space="preserve"
     id="flowRoot3362"
     style="font-size:18px;font-style:normal;font-weight:normal;line-height:125%;letter-spacing:0px;word-spacing:0px;fill:#000000;fill-opacity:1;stroke:none;font-family:Sans"
     transform="translate(-6.1544369,-25.490278)"><flowRegion
       id="flowRegion3364"><rect
         id="rect3366"
         width="30.807087"
         height="34.935867"
         x="8.2575693"
         y="190.72089"
         style="font-size:18px" /></flowRegion><flowPara
       id="flowPara3368">-24</flowPara></flowRoot>  <text
     xml:space="preserve"
     style="font-size:18px;font-style:normal;font-weight:normal;line-height:125%;letter-spacing:0px;word-spacing:0px;fill:#000000;fill-opacity:1;stroke:none;font-family:Sans"
     x="191.42641"
     y="183.42484"
     id="text3370"
     sodipodi:linespacing="125%"><tspan
       sodipodi:role="line"
       id="tspan3372"
       x="191.42641"
       y="183.42484">-13</tspan></text>
  <text
     xml:space="preserve"
     style="font-size:18px;font-style:normal;font-weight:normal;line-height:125%;letter-spacing:0px;word-spacing:0px;fill:#000000;fill-opacity:1;stroke:none;font-family:Sans"
     x="37.322227"
     y="183.42484"
     id="text3374"
     sodipodi:linespacing="125%"><tspan
       sodipodi:role="line"
       id="tspan3376"
       x="37.322227"
       y="183.42484">-22</tspan></text>
  <text
     xml:space="preserve"
     style="font-size:18px;font-style:normal;font-weight:normal;line-height:125%;letter-spacing:0px;word-spacing:0px;fill:#000000;fill-opacity:1;stroke:none;font-family:Sans"
     x="68.223709"
     y="183.42484"
     id="text3378"
     sodipodi:linespacing="125%"><tspan
       sodipodi:role="line"
       id="tspan3380"
       x="68.223709"
       y="183.42484">-20</tspan></text>
  <text
     xml:space="preserve"
     style="font-size:18px;font-style:normal;font-weight:normal;line-height:125%;letter-spacing:0px;word-spacing:0px;fill:#000000;fill-opacity:1;stroke:none;font-family:Sans"
     x="98.747566"
     y="183.42484"
     id="text3382"
     sodipodi:linespacing="125%"><tspan
       sodipodi:role="line"
       x="98.747566"
       y="183.42484"
       id="tspan3386">-19</tspan></text>
  <text
     xml:space="preserve"
     style="font-size:18px;font-style:normal;font-weight:normal;line-height:125%;letter-spacing:0px;word-spacing:0px;fill:#000000;fill-opacity:1;stroke:none;font-family:Sans"
     x="130.56749"
     y="183.16995"
     id="text3388"
     sodipodi:linespacing="125%"><tspan
       sodipodi:role="line"
       id="tspan3390"
       x="130.56749"
       y="183.16995">-17</tspan></text>
  <text
     xml:space="preserve"
     style="font-size:18px;font-style:normal;font-weight:normal;line-height:125%;letter-spacing:0px;word-spacing:0px;fill:#000000;fill-opacity:1;stroke:none;font-family:Sans"
     x="160.77376"
     y="183.42484"
     id="text3398"
     sodipodi:linespacing="125%"><tspan
       sodipodi:role="line"
       id="tspan3400"
       x="160.77376"
       y="183.42484">-15</tspan></text>
  <text
     xml:space="preserve"
     style="font-size:18px;font-style:normal;font-weight:normal;line-height:125%;letter-spacing:0px;word-spacing:0px;fill:#000000;fill-opacity:1;stroke:none;font-family:Sans"
     x="18.231916"
     y="25.960213"
     id="text3402"
     sodipodi:linespacing="125%"><tspan
       sodipodi:role="line"
       id="tspan3404"
       x="18.231916"
       y="25.960213">-23</tspan></text>
  <text
     xml:space="preserve"
     style="font-size:18px;font-style:normal;font-weight:normal;line-height:125%;letter-spacing:0px;word-spacing:0px;fill:#000000;fill-opacity:1;stroke:none;font-family:Sans"
     x="55.674198"
     y="25.960213"
     id="text3406"
     sodipodi:linespacing="125%"><tspan
       sodipodi:role="line"
       id="tspan3408"
       x="55.674198"
       y="25.960213">-21</tspan></text>
  <text
     xml:space="preserve"
     style="font-size:18px;font-style:normal;font-weight:normal;line-height:125%;letter-spacing:0px;word-spacing:0px;fill:#000000;fill-opacity:1;stroke:none;font-family:Sans"
     x="110.36995"
     y="25.960213"
     id="text3410"
     sodipodi:linespacing="125%"><tspan
       sodipodi:role="line"
       id="tspan3412"
       x="110.36995"
       y="25.960213">-18</tspan></text>
  <text
     xml:space="preserve"
     style="font-size:18px;font-style:normal;font-weight:normal;line-height:125%;letter-spacing:0px;word-spacing:0px;fill:#000000;fill-opacity:1;stroke:none;font-family:Sans"
     x="143.77783"
     y="25.960213"
     id="text3414"
     sodipodi:linespacing="125%"><tspan
       sodipodi:role="line"
       id="tspan3416"
       x="143.77783"
       y="25.960213">-16</tspan></text>
  <text
     xml:space="preserve"
     style="font-size:18px;font-style:normal;font-weight:normal;line-height:125%;letter-spacing:0px;word-spacing:0px;fill:#000000;fill-opacity:1;stroke:none;font-family:Sans"
     x="178.17293"
     y="25.960213"
     id="text3418"
     sodipodi:linespacing="125%"><tspan
       sodipodi:role="line"
       id="tspan3420"
       x="178.17293"
       y="25.960213">-14</tspan></text>
  <path
     style="fill:#000000"
     d="m 222.27119,97.5 0,-66.5 109,0 109,0 0,66.5 0,66.5 -109,0 -109,0 0,-66.5 z m 31,46.5 0,-19 -4,0 -4,0 0,-46.5 0,-46.5 -11,0 -11,0 0,65.5 0,65.5 15,0 15,0 0,-19 z m 31,0 0,-19 -4,0 -4,0 0,-46.5 0,-46.5 -6.5,0 -6.5,0 0,46.5 0,46.5 -4.5,0 -4.5,0 0,19 0,19 15,0 15,0 0,-19 z m 31,-46.5 0,-65.5 -10.5,0 -10.5,0 0,46.5 0,46.5 -4.5,0 -4.5,0 0,19 0,19 15,0 15,0 0,-65.5 z m 31,46.5 0,-19 -3.5,0 -3.5,0 0,-46.5 0,-46.5 -11.5,0 -11.5,0 0,65.5 0,65.5 15,0 15,0 0,-19 z m 31,0 0,-19 -4,0 -4,0 0,-46.5 0,-46.5 -6,0 -6,0 0,46.5 0,46.5 -5,0 -5,0 0,19 0,19 15,0 15,0 0,-19 z m 31,0 0,-19 -4.5,0 -4.5,0 0,-46.5 0,-46.5 -6,0 -6,0 0,46.5 0,46.5 -4.5,0 -4.5,0 0,19 0,19 15,0 15,0 0,-19 z m 31,-46.5 0,-65.5 -11,0 -11,0 0,46.5 0,46.5 -4,0 -4,0 0,19 0,19 15,0 15,0 0,-65.5 z"
     id="path3341-7"
     inkscape:connector-curvature="0" />
  <flowRoot
     xml:space="preserve"
     id="flowRoot3362-5"
     style="font-size:18px;font-style:normal;font-weight:normal;line-height:125%;letter-spacing:0px;word-spacing:0px;fill:#000000;fill-opacity:1;stroke:none;font-family:Sans"
     transform="translate(213.11675,-25.490278)"><flowRegion
       id="flowRegion3364-8"><rect
         id="rect3366-6"
         width="30.807087"
         height="34.935867"
         x="8.2575693"
         y="190.72089"
         style="font-size:18px" /></flowRegion><flowPara
       id="flowPara3368-7">-12</flowPara></flowRoot>  <text
     xml:space="preserve"
     style="font-size:18px;font-style:normal;font-weight:normal;line-height:125%;letter-spacing:0px;word-spacing:0px;fill:#000000;fill-opacity:1;stroke:none;font-family:Sans"
     x="416.6976"
     y="183.42484"
     id="text3370-0"
     sodipodi:linespacing="125%"><tspan
       sodipodi:role="line"
       id="tspan3372-2"
       x="416.6976"
       y="183.42484">-1</tspan></text>
  <text
     xml:space="preserve"
     style="font-size:18px;font-style:normal;font-weight:normal;line-height:125%;letter-spacing:0px;word-spacing:0px;fill:#000000;fill-opacity:1;stroke:none;font-family:Sans"
     x="251.04257"
     y="183.42484"
     id="text3374-6"
     sodipodi:linespacing="125%"><tspan
       sodipodi:role="line"
       id="tspan3376-9"
       x="251.04257"
       y="183.42484">-10</tspan></text>
  <text
     xml:space="preserve"
     style="font-size:18px;font-style:normal;font-weight:normal;line-height:125%;letter-spacing:0px;word-spacing:0px;fill:#000000;fill-opacity:1;stroke:none;font-family:Sans"
     x="291.4949"
     y="183.42484"
     id="text3378-3"
     sodipodi:linespacing="125%"><tspan
       sodipodi:role="line"
       id="tspan3380-3"
       x="291.4949"
       y="183.42484">-8</tspan></text>
  <text
     xml:space="preserve"
     style="font-size:18px;font-style:normal;font-weight:normal;line-height:125%;letter-spacing:0px;word-spacing:0px;fill:#000000;fill-opacity:1;stroke:none;font-family:Sans"
     x="322.01877"
     y="183.42484"
     id="text3382-5"
     sodipodi:linespacing="125%"><tspan
       sodipodi:role="line"
       x="322.01877"
       y="183.42484"
       id="tspan3386-4">-7</tspan></text>
  <text
     xml:space="preserve"
     style="font-size:18px;font-style:normal;font-weight:normal;line-height:125%;letter-spacing:0px;word-spacing:0px;fill:#000000;fill-opacity:1;stroke:none;font-family:Sans"
     x="351.83868"
     y="183.16995"
     id="text3388-6"
     sodipodi:linespacing="125%"><tspan
       sodipodi:role="line"
       id="tspan3390-4"
       x="351.83868"
       y="183.16995">-5</tspan></text>
  <text
     xml:space="preserve"
     style="font-size:18px;font-style:normal;font-weight:normal;line-height:125%;letter-spacing:0px;word-spacing:0px;fill:#000000;fill-opacity:1;stroke:none;font-family:Sans"
     x="384.04495"
     y="183.42484"
     id="text3398-8"
     sodipodi:linespacing="125%"><tspan
       sodipodi:role="line"
       id="tspan3400-2"
       x="384.04495"
       y="183.42484">-3</tspan></text>
  <text
     xml:space="preserve"
     style="font-size:18px;font-style:normal;font-weight:normal;line-height:125%;letter-spacing:0px;word-spacing:0px;fill:#000000;fill-opacity:1;stroke:none;font-family:Sans"
     x="239.50311"
     y="25.960213"
     id="text3402-4"
     sodipodi:linespacing="125%"><tspan
       sodipodi:role="line"
       id="tspan3404-0"
       x="239.50311"
       y="25.960213">-11</tspan></text>
  <text
     xml:space="preserve"
     style="font-size:18px;font-style:normal;font-weight:normal;line-height:125%;letter-spacing:0px;word-spacing:0px;fill:#000000;fill-opacity:1;stroke:none;font-family:Sans"
     x="276.94537"
     y="25.960213"
     id="text3406-8"
     sodipodi:linespacing="125%"><tspan
       sodipodi:role="line"
       id="tspan3408-2"
       x="276.94537"
       y="25.960213">-9</tspan></text>
  <text
     xml:space="preserve"
     style="font-size:18px;font-style:normal;font-weight:normal;line-height:125%;letter-spacing:0px;word-spacing:0px;fill:#000000;fill-opacity:1;stroke:none;font-family:Sans"
     x="339.64114"
     y="25.960213"
     id="text3410-9"
     sodipodi:linespacing="125%"><tspan
       sodipodi:role="line"
       id="tspan3412-0"
       x="339.64114"
       y="25.960213">-6</tspan></text>
  <text
     xml:space="preserve"
     style="font-size:18px;font-style:normal;font-weight:normal;line-height:125%;letter-spacing:0px;word-spacing:0px;fill:#000000;fill-opacity:1;stroke:none;font-family:Sans"
     x="369.04901"
     y="25.960213"
     id="text3414-3"
     sodipodi:linespacing="125%"><tspan
       sodipodi:role="line"
       id="tspan3416-1"
       x="369.04901"
       y="25.960213">-4</tspan></text>
  <text
     xml:space="preserve"
     style="font-size:18px;font-style:normal;font-weight:normal;line-height:125%;letter-spacing:0px;word-spacing:0px;fill:#000000;fill-opacity:1;stroke:none;font-family:Sans"
     x="399.44412"
     y="25.960213"
     id="text3418-5"
     sodipodi:linespacing="125%"><tspan
       sodipodi:role="line"
       id="tspan3420-7"
       x="399.44412"
       y="25.960213">-2</tspan></text>
  <path
     style="fill:#000000"
     d="m 439.44065,97.5 0,-66.5 109,0 109,0 0,66.5 0,66.5 -109,0 -109,0 0,-66.5 z m 31,46.5 0,-19 -4,0 -4,0 0,-46.5 0,-46.5 -11,0 -11,0 0,65.5 0,65.5 15,0 15,0 0,-19 z m 31,0 0,-19 -4,0 -4,0 0,-46.5 0,-46.5 -6.5,0 -6.5,0 0,46.5 0,46.5 -4.5,0 -4.5,0 0,19 0,19 15,0 15,0 0,-19 z m 31,-46.5 0,-65.5 -10.5,0 -10.5,0 0,46.5 0,46.5 -4.5,0 -4.5,0 0,19 0,19 15,0 15,0 0,-65.5 z m 31,46.5 0,-19 -3.5,0 -3.5,0 0,-46.5 0,-46.5 -11.5,0 -11.5,0 0,65.5 0,65.5 15,0 15,0 0,-19 z m 31,0 0,-19 -4,0 -4,0 0,-46.5 0,-46.5 -6,0 -6,0 0,46.5 0,46.5 -5,0 -5,0 0,19 0,19 15,0 15,0 0,-19 z m 31,0 0,-19 -4.5,0 -4.5,0 0,-46.5 0,-46.5 -6,0 -6,0 0,46.5 0,46.5 -4.5,0 -4.5,0 0,19 0,19 15,0 15,0 0,-19 z m 31,-46.5 0,-65.5 -11,0 -11,0 0,46.5 0,46.5 -4,0 -4,0 0,19 0,19 15,0 15,0 0,-65.5 z"
     id="path3341-6"
     inkscape:connector-curvature="0" />
  <flowRoot
     xml:space="preserve"
     id="flowRoot3362-50"
     style="font-size:18px;font-style:normal;font-weight:normal;line-height:125%;letter-spacing:0px;word-spacing:0px;fill:#000000;fill-opacity:1;stroke:none;font-family:Sans"
     transform="translate(440.28621,-25.490278)"><flowRegion
       id="flowRegion3364-5"><rect
         id="rect3366-2"
         width="30.807087"
         height="34.935867"
         x="8.2575693"
         y="190.72089"
         style="font-size:18px" /></flowRegion><flowPara
       id="flowPara3368-8">0</flowPara></flowRoot>  <text
     xml:space="preserve"
     style="font-size:18px;font-style:normal;font-weight:normal;line-height:125%;letter-spacing:0px;word-spacing:0px;fill:#000000;fill-opacity:1;stroke:none;font-family:Sans"
     x="629.86707"
     y="183.42484"
     id="text3370-1"
     sodipodi:linespacing="125%"><tspan
       sodipodi:role="line"
       id="tspan3372-0"
       x="629.86707"
       y="183.42484">11</tspan></text>
  <text
     xml:space="preserve"
     style="font-size:18px;font-style:normal;font-weight:normal;line-height:125%;letter-spacing:0px;word-spacing:0px;fill:#000000;fill-opacity:1;stroke:none;font-family:Sans"
     x="479.76288"
     y="183.42484"
     id="text3374-9"
     sodipodi:linespacing="125%"><tspan
       sodipodi:role="line"
       id="tspan3376-4"
       x="479.76288"
       y="183.42484">2</tspan></text>
  <text
     xml:space="preserve"
     style="font-size:18px;font-style:normal;font-weight:normal;line-height:125%;letter-spacing:0px;word-spacing:0px;fill:#000000;fill-opacity:1;stroke:none;font-family:Sans"
     x="510.66437"
     y="183.42484"
     id="text3378-6"
     sodipodi:linespacing="125%"><tspan
       sodipodi:role="line"
       id="tspan3380-0"
       x="510.66437"
       y="183.42484">4</tspan></text>
  <text
     xml:space="preserve"
     style="font-size:18px;font-style:normal;font-weight:normal;line-height:125%;letter-spacing:0px;word-spacing:0px;fill:#000000;fill-opacity:1;stroke:none;font-family:Sans"
     x="543.18823"
     y="183.42484"
     id="text3382-9"
     sodipodi:linespacing="125%"><tspan
       sodipodi:role="line"
       x="543.18823"
       y="183.42484"
       id="tspan3386-1">5</tspan></text>
  <text
     xml:space="preserve"
     style="font-size:18px;font-style:normal;font-weight:normal;line-height:125%;letter-spacing:0px;word-spacing:0px;fill:#000000;fill-opacity:1;stroke:none;font-family:Sans"
     x="573.00812"
     y="183.16995"
     id="text3388-8"
     sodipodi:linespacing="125%"><tspan
       sodipodi:role="line"
       id="tspan3390-5"
       x="573.00812"
       y="183.16995">7</tspan></text>
  <text
     xml:space="preserve"
     style="font-size:18px;font-style:normal;font-weight:normal;line-height:125%;letter-spacing:0px;word-spacing:0px;fill:#000000;fill-opacity:1;stroke:none;font-family:Sans"
     x="605.21442"
     y="183.42484"
     id="text3398-9"
     sodipodi:linespacing="125%"><tspan
       sodipodi:role="line"
       id="tspan3400-24"
       x="605.21442"
       y="183.42484">9</tspan></text>
  <text
     xml:space="preserve"
     style="font-size:18px;font-style:normal;font-weight:normal;line-height:125%;letter-spacing:0px;word-spacing:0px;fill:#000000;fill-opacity:1;stroke:none;font-family:Sans"
     x="465.30777"
     y="25.960213"
     id="text3402-2"
     sodipodi:linespacing="125%"><tspan
       sodipodi:role="line"
       id="tspan3404-8"
       x="465.30777"
       y="25.960213">1</tspan></text>
  <text
     xml:space="preserve"
     style="font-size:18px;font-style:normal;font-weight:normal;line-height:125%;letter-spacing:0px;word-spacing:0px;fill:#000000;fill-opacity:1;stroke:none;font-family:Sans"
     x="496.11484"
     y="26.277811"
     id="text3406-6"
     sodipodi:linespacing="125%"><tspan
       sodipodi:role="line"
       id="tspan3408-20"
       x="496.11484"
       y="26.277811">3</tspan></text>
  <text
     xml:space="preserve"
     style="font-size:18px;font-style:normal;font-weight:normal;line-height:125%;letter-spacing:0px;word-spacing:0px;fill:#000000;fill-opacity:1;stroke:none;font-family:Sans"
     x="558.81061"
     y="25.960213"
     id="text3410-6"
     sodipodi:linespacing="125%"><tspan
       sodipodi:role="line"
       id="tspan3412-2"
       x="558.81061"
       y="25.960213">6</tspan></text>
  <text
     xml:space="preserve"
     style="font-size:18px;font-style:normal;font-weight:normal;line-height:125%;letter-spacing:0px;word-spacing:0px;fill:#000000;fill-opacity:1;stroke:none;font-family:Sans"
     x="588.21851"
     y="25.960213"
     id="text3414-6"
     sodipodi:linespacing="125%"><tspan
       sodipodi:role="line"
       id="tspan3416-7"
       x="588.21851"
       y="25.960213">8</tspan></text>
  <text
     xml:space="preserve"
     style="font-size:18px;font-style:normal;font-weight:normal;line-height:125%;letter-spacing:0px;word-spacing:0px;fill:#000000;fill-opacity:1;stroke:none;font-family:Sans"
     x="612.61359"
     y="25.960213"
     id="text3418-9"
     sodipodi:linespacing="125%"><tspan
       sodipodi:role="line"
       id="tspan3420-3"
       x="612.61359"
       y="25.960213">10</tspan></text>
  <path
     style="fill:#000000"
     d="m 656.48728,97.5 0,-66.5 108.99998,0 109,0 0,66.5 0,66.5 -109,0 -108.99998,0 0,-66.5 z m 31,46.5 0,-19 -4,0 -4,0 0,-46.5 0,-46.5 -11,0 -11,0 0,65.5 0,65.5 15,0 15,0 0,-19 z m 31,0 0,-19 -4,0 -4,0 0,-46.5 0,-46.5 -6.5,0 -6.5,0 0,46.5 0,46.5 -4.5,0 -4.5,0 0,19 0,19 15,0 15,0 0,-19 z m 31,-46.5 0,-65.5 -10.5,0 -10.5,0 0,46.5 0,46.5 -4.5,0 -4.5,0 0,19 0,19 15,0 15,0 0,-65.5 z m 30.99998,46.5 0,-19 -3.5,0 -3.5,0 0,-46.5 0,-46.5 -11.5,0 -11.49998,0 0,65.5 0,65.5 14.99998,0 15,0 0,-19 z m 31,0 0,-19 -4,0 -4,0 0,-46.5 0,-46.5 -6,0 -6,0 0,46.5 0,46.5 -5,0 -5,0 0,19 0,19 15,0 15,0 0,-19 z m 31,0 0,-19 -4.5,0 -4.5,0 0,-46.5 0,-46.5 -6,0 -6,0 0,46.5 0,46.5 -4.5,0 -4.5,0 0,19 0,19 15,0 15,0 0,-19 z m 31,-46.5 0,-65.5 -11,0 -11,0 0,46.5 0,46.5 -4,0 -4,0 0,19 0,19 15,0 15,0 0,-65.5 z"
     id="path3341-7-6"
     inkscape:connector-curvature="0" />
  <flowRoot
     xml:space="preserve"
     id="flowRoot3362-5-1"
     style="font-size:18px;font-style:normal;font-weight:normal;line-height:125%;letter-spacing:0px;word-spacing:0px;fill:#000000;fill-opacity:1;stroke:none;font-family:Sans"
     transform="translate(652.92606,-25.490278)"><flowRegion
       id="flowRegion3364-8-9"><rect
         id="rect3366-6-1"
         width="30.807087"
         height="34.935867"
         x="8.2575693"
         y="190.72089"
         style="font-size:18px" /></flowRegion><flowPara
       id="flowPara3368-7-5">12</flowPara></flowRoot>  <text
     xml:space="preserve"
     style="font-size:18px;font-style:normal;font-weight:normal;line-height:125%;letter-spacing:0px;word-spacing:0px;fill:#000000;fill-opacity:1;stroke:none;font-family:Sans"
     x="848.5069"
     y="183.42484"
     id="text3370-0-8"
     sodipodi:linespacing="125%"><tspan
       sodipodi:role="line"
       id="tspan3372-2-5"
       x="848.5069"
       y="183.42484">23</tspan></text>
  <text
     xml:space="preserve"
     style="font-size:18px;font-style:normal;font-weight:normal;line-height:125%;letter-spacing:0px;word-spacing:0px;fill:#000000;fill-opacity:1;stroke:none;font-family:Sans"
     x="692.40271"
     y="183.42484"
     id="text3374-6-5"
     sodipodi:linespacing="125%"><tspan
       sodipodi:role="line"
       id="tspan3376-9-9"
       x="692.40271"
       y="183.42484">14</tspan></text>
  <text
     xml:space="preserve"
     style="font-size:18px;font-style:normal;font-weight:normal;line-height:125%;letter-spacing:0px;word-spacing:0px;fill:#000000;fill-opacity:1;stroke:none;font-family:Sans"
     x="722.98657"
     y="183.42484"
     id="text3378-3-9"
     sodipodi:linespacing="125%"><tspan
       sodipodi:role="line"
       id="tspan3380-3-3"
       x="722.98657"
       y="183.42484">16</tspan></text>
  <text
     xml:space="preserve"
     style="font-size:18px;font-style:normal;font-weight:normal;line-height:125%;letter-spacing:0px;word-spacing:0px;fill:#000000;fill-opacity:1;stroke:none;font-family:Sans"
     x="754.23993"
     y="183.42484"
     id="text3382-5-1"
     sodipodi:linespacing="125%"><tspan
       sodipodi:role="line"
       x="754.23993"
       y="183.42484"
       id="tspan3386-4-8">17</tspan></text>
  <text
     xml:space="preserve"
     style="font-size:18px;font-style:normal;font-weight:normal;line-height:125%;letter-spacing:0px;word-spacing:0px;fill:#000000;fill-opacity:1;stroke:none;font-family:Sans"
     x="785.33038"
     y="183.16995"
     id="text3388-6-7"
     sodipodi:linespacing="125%"><tspan
       sodipodi:role="line"
       id="tspan3390-4-9"
       x="785.33038"
       y="183.16995">19</tspan></text>
  <text
     xml:space="preserve"
     style="font-size:18px;font-style:normal;font-weight:normal;line-height:125%;letter-spacing:0px;word-spacing:0px;fill:#000000;fill-opacity:1;stroke:none;font-family:Sans"
     x="817.53662"
     y="183.42484"
     id="text3398-8-6"
     sodipodi:linespacing="125%"><tspan
       sodipodi:role="line"
       id="tspan3400-2-6"
       x="817.53662"
       y="183.42484">21</tspan></text>
  <text
     xml:space="preserve"
     style="font-size:18px;font-style:normal;font-weight:normal;line-height:125%;letter-spacing:0px;word-spacing:0px;fill:#000000;fill-opacity:1;stroke:none;font-family:Sans"
     x="673.31244"
     y="25.960213"
     id="text3402-4-3"
     sodipodi:linespacing="125%"><tspan
       sodipodi:role="line"
       id="tspan3404-0-0"
       x="673.31244"
       y="25.960213">13</tspan></text>
  <text
     xml:space="preserve"
     style="font-size:18px;font-style:normal;font-weight:normal;line-height:125%;letter-spacing:0px;word-spacing:0px;fill:#000000;fill-opacity:1;stroke:none;font-family:Sans"
     x="704.7547"
     y="25.960213"
     id="text3406-8-0"
     sodipodi:linespacing="125%"><tspan
       sodipodi:role="line"
       id="tspan3408-2-2"
       x="704.7547"
       y="25.960213">15</tspan></text>
  <text
     xml:space="preserve"
     style="font-size:18px;font-style:normal;font-weight:normal;line-height:125%;letter-spacing:0px;word-spacing:0px;fill:#000000;fill-opacity:1;stroke:none;font-family:Sans"
     x="769.45044"
     y="25.960213"
     id="text3410-9-6"
     sodipodi:linespacing="125%"><tspan
       sodipodi:role="line"
       id="tspan3412-0-2"
       x="769.45044"
       y="25.960213">18</tspan></text>
  <text
     xml:space="preserve"
     style="font-size:18px;font-style:normal;font-weight:normal;line-height:125%;letter-spacing:0px;word-spacing:0px;fill:#000000;fill-opacity:1;stroke:none;font-family:Sans"
     x="800.54071"
     y="25.960213"
     id="text3414-3-4"
     sodipodi:linespacing="125%"><tspan
       sodipodi:role="line"
       id="tspan3416-1-4"
       x="800.54071"
       y="25.960213">20</tspan></text>
  <text
     xml:space="preserve"
     style="font-size:18px;font-style:normal;font-weight:normal;line-height:125%;letter-spacing:0px;word-spacing:0px;fill:#000000;fill-opacity:1;stroke:none;font-family:Sans"
     x="830.84155"
     y="25.960213"
     id="text3418-5-7"
     sodipodi:linespacing="125%"><tspan
       sodipodi:role="line"
       id="tspan3420-7-0"
       x="830.84155"
       y="25.960213">22</tspan></text>
  <path
     style="fill:#000000"
     d="m 873.40644,97.5 0,-66.5 108.99998,0 108.99998,0 0,66.5 0,66.5 -108.99998,0 -108.99998,0 0,-66.5 z m 31,46.5 0,-19 -4,0 -4,0 0,-46.5 0,-46.5 -11,0 -11,0 0,65.5 0,65.5 15,0 15,0 0,-19 z m 31,0 0,-19 -4,0 -4,0 0,-46.5 0,-46.5 -6.5,0 -6.5,0 0,46.5 0,46.5 -4.5,0 -4.5,0 0,19 0,19 15,0 15,0 0,-19 z m 31,-46.5 0,-65.5 -10.5,0 -10.5,0 0,46.5 0,46.5 -4.5,0 -4.5,0 0,19 0,19 15,0 15,0 0,-65.5 z m 30.99998,46.5 0,-19 -3.5,0 -3.5,0 0,-46.5 0,-46.5 -11.5,0 -11.49998,0 0,65.5 0,65.5 14.99998,0 15,0 0,-19 z m 30.99998,0 0,-19 -4,0 -4,0 0,-46.5 0,-46.5 -6,0 -6,0 0,46.5 0,46.5 -5,0 -4.99998,0 0,19 0,19 14.99998,0 15,0 0,-19 z m 31,0 0,-19 -4.5,0 -4.5,0 0,-46.5 0,-46.5 -6,0 -6,0 0,46.5 0,46.5 -4.5,0 -4.5,0 0,19 0,19 15,0 15,0 0,-19 z m 31,-46.5 0,-65.5 -11,0 -11,0 0,46.5 0,46.5 -4,0 -4,0 0,19 0,19 15,0 15,0 0,-65.5 z"
     id="path3341-7-6-6"
     inkscape:connector-curvature="0" />
  <flowRoot
     xml:space="preserve"
     id="flowRoot3362-5-1-6"
     style="font-size:18px;font-style:normal;font-weight:normal;line-height:125%;letter-spacing:0px;word-spacing:0px;fill:#000000;fill-opacity:1;stroke:none;font-family:Sans"
     transform="translate(869.84522,-25.490278)"><flowRegion
       id="flowRegion3364-8-9-3"><rect
         id="rect3366-6-1-2"
         width="30.807087"
         height="34.935867"
         x="8.2575693"
         y="190.72089"
         style="font-size:18px" /></flowRegion><flowPara
       id="flowPara3368-7-5-7">24</flowPara></flowRoot>  <text
     xml:space="preserve"
     style="font-size:18px;font-style:normal;font-weight:normal;line-height:125%;letter-spacing:0px;word-spacing:0px;fill:#000000;fill-opacity:1;stroke:none;font-family:Sans"
     x="1065.426"
     y="183.42484"
     id="text3370-0-8-2"
     sodipodi:linespacing="125%"><tspan
       sodipodi:role="line"
       id="tspan3372-2-5-6"
       x="1065.426"
       y="183.42484">35</tspan></text>
  <text
     xml:space="preserve"
     style="font-size:18px;font-style:normal;font-weight:normal;line-height:125%;letter-spacing:0px;word-spacing:0px;fill:#000000;fill-opacity:1;stroke:none;font-family:Sans"
     x="909.3219"
     y="183.42484"
     id="text3374-6-5-2"
     sodipodi:linespacing="125%"><tspan
       sodipodi:role="line"
       id="tspan3376-9-9-2"
       x="909.3219"
       y="183.42484">26</tspan></text>
  <text
     xml:space="preserve"
     style="font-size:18px;font-style:normal;font-weight:normal;line-height:125%;letter-spacing:0px;word-spacing:0px;fill:#000000;fill-opacity:1;stroke:none;font-family:Sans"
     x="940.22339"
     y="183.42484"
     id="text3378-3-9-1"
     sodipodi:linespacing="125%"><tspan
       sodipodi:role="line"
       id="tspan3380-3-3-0"
       x="940.22339"
       y="183.42484">28</tspan></text>
  <text
     xml:space="preserve"
     style="font-size:18px;font-style:normal;font-weight:normal;line-height:125%;letter-spacing:0px;word-spacing:0px;fill:#000000;fill-opacity:1;stroke:none;font-family:Sans"
     x="970.74725"
     y="183.42484"
     id="text3382-5-1-3"
     sodipodi:linespacing="125%"><tspan
       sodipodi:role="line"
       x="970.74725"
       y="183.42484"
       id="tspan3386-4-8-0">29</tspan></text>
  <text
     xml:space="preserve"
     style="font-size:18px;font-style:normal;font-weight:normal;line-height:125%;letter-spacing:0px;word-spacing:0px;fill:#000000;fill-opacity:1;stroke:none;font-family:Sans"
     x="1002.5671"
     y="183.16995"
     id="text3388-6-7-3"
     sodipodi:linespacing="125%"><tspan
       sodipodi:role="line"
       id="tspan3390-4-9-5"
       x="1002.5671"
       y="183.16995">31</tspan></text>
  <text
     xml:space="preserve"
     style="font-size:18px;font-style:normal;font-weight:normal;line-height:125%;letter-spacing:0px;word-spacing:0px;fill:#000000;fill-opacity:1;stroke:none;font-family:Sans"
     x="1032.7734"
     y="183.42484"
     id="text3398-8-6-0"
     sodipodi:linespacing="125%"><tspan
       sodipodi:role="line"
       id="tspan3400-2-6-2"
       x="1032.7734"
       y="183.42484">33</tspan></text>
  <text
     xml:space="preserve"
     style="font-size:18px;font-style:normal;font-weight:normal;line-height:125%;letter-spacing:0px;word-spacing:0px;fill:#000000;fill-opacity:1;stroke:none;font-family:Sans"
     x="893.91394"
     y="25.960213"
     id="text3402-4-3-6"
     sodipodi:linespacing="125%"><tspan
       sodipodi:role="line"
       id="tspan3404-0-0-6"
       x="893.91394"
       y="25.960213">25</tspan></text>
  <text
     xml:space="preserve"
     style="font-size:18px;font-style:normal;font-weight:normal;line-height:125%;letter-spacing:0px;word-spacing:0px;fill:#000000;fill-opacity:1;stroke:none;font-family:Sans"
     x="925.67383"
     y="25.960213"
     id="text3406-8-0-9"
     sodipodi:linespacing="125%"><tspan
       sodipodi:role="line"
       id="tspan3408-2-2-0"
       x="925.67383"
       y="25.960213">27</tspan></text>
  <text
     xml:space="preserve"
     style="font-size:18px;font-style:normal;font-weight:normal;line-height:125%;letter-spacing:0px;word-spacing:0px;fill:#000000;fill-opacity:1;stroke:none;font-family:Sans"
     x="987.32251"
     y="25.960213"
     id="text3410-9-6-8"
     sodipodi:linespacing="125%"><tspan
       sodipodi:role="line"
       id="tspan3412-0-2-9"
       x="987.32251"
       y="25.960213">30</tspan></text>
  <text
     xml:space="preserve"
     style="font-size:18px;font-style:normal;font-weight:normal;line-height:125%;letter-spacing:0px;word-spacing:0px;fill:#000000;fill-opacity:1;stroke:none;font-family:Sans"
     x="1017.7775"
     y="25.960213"
     id="text3414-3-4-4"
     sodipodi:linespacing="125%"><tspan
       sodipodi:role="line"
       id="tspan3416-1-4-7"
       x="1017.7775"
       y="25.960213">32</tspan></text>
  <text
     xml:space="preserve"
     style="font-size:18px;font-style:normal;font-weight:normal;line-height:125%;letter-spacing:0px;word-spacing:0px;fill:#000000;fill-opacity:1;stroke:none;font-family:Sans"
     x="1047.7607"
     y="25.960213"
     id="text3418-5-7-4"
     sodipodi:linespacing="125%"><tspan
       sodipodi:role="line"
       id="tspan3420-7-0-8"
       x="1047.7607"
       y="25.960213">34</tspan></text>
  <g
     id="g4073">
    <g
       transform="matrix(0,-13.079281,22.804183,0,-5009.1544,3427.8117)"
       id="text3996"
       style="font-size:10px;font-style:normal;font-weight:normal;line-height:125%;letter-spacing:0px;word-spacing:0px;fill:#000000;fill-opacity:1;stroke:none;font-family:Sans">
      <path
         inkscape:connector-curvature="0"
         id="path4001"
         d="m 247.2232,228.45205 0,0.67837 -0.13904,0 c -0.37227,0 -0.62195,-0.11621 -0.74903,-0.34861 -0.12558,-0.23241 -0.18837,-0.69564 -0.18837,-1.38971 l 0,-1.12589 c 0,-0.47423 -0.0404,-0.80242 -0.1211,-0.98457 -0.0807,-0.18215 -0.22725,-0.27323 -0.43955,-0.27323 l -0.1368,0 0,-0.67366 0.1368,0 c 0.2138,10e-6 0.36031,-0.0895 0.43955,-0.26852 0.0807,-0.18214 0.1211,-0.5072 0.1211,-0.97515 l 0,-1.1306 c 0,-0.69406 0.0628,-1.15572 0.18837,-1.38499 0.12708,-0.2324 0.37676,-0.3486 0.74903,-0.34861 l 0.13904,0 0,0.67365 -0.1525,0 c -0.2108,1e-5 -0.34835,0.0691 -0.41263,0.20729 -0.0643,0.13818 -0.0964,0.42869 -0.0964,0.8715 l 0,1.1683 c -1e-5,0.49307 -0.0344,0.8511 -0.10316,1.07408 -0.0673,0.22298 -0.18315,0.37373 -0.3476,0.45224 0.16595,0.0848 0.28256,0.23869 0.34984,0.46166 0.0673,0.22298 0.10091,0.57944 0.10092,1.06937 l 0,1.16829 c -1e-5,0.44282 0.0322,0.73333 0.0964,0.87151 0.0643,0.13819 0.20183,0.20728 0.41263,0.20728 l 0.1525,0" />
    </g>
    <text
       sodipodi:linespacing="125%"
       id="text4003"
       y="241.71773"
       x="81.193832"
       style="font-size:15.695508px;font-style:normal;font-weight:normal;line-height:125%;letter-spacing:0px;word-spacing:0px;fill:#000000;fill-opacity:1;stroke:none;font-family:Sans"
       xml:space="preserve"><tspan
         style="font-style:normal;font-variant:normal;font-weight:normal;font-stretch:normal;font-family:Serif;-inkscape-font-specification:Serif"
         y="241.71773"
         x="81.193832"
         id="tspan4005"
         sodipodi:role="line">Oktav -2</tspan></text>
  </g>
  <g
     id="g4097"
     transform="translate(0,-0.84472091)">
    <g
       transform="matrix(0,-13.079281,22.804183,0,-4789.4991,3428.6564)"
       id="text3996-2"
       style="font-size:10px;font-style:normal;font-weight:normal;line-height:125%;letter-spacing:0px;word-spacing:0px;fill:#000000;fill-opacity:1;stroke:none;font-family:Sans">
      <path
         inkscape:connector-curvature="0"
         id="path4001-7"
         d="m 247.2232,228.45205 0,0.67837 -0.13904,0 c -0.37227,0 -0.62195,-0.11621 -0.74903,-0.34861 -0.12558,-0.23241 -0.18837,-0.69564 -0.18837,-1.38971 l 0,-1.12589 c 0,-0.47423 -0.0404,-0.80242 -0.1211,-0.98457 -0.0807,-0.18215 -0.22725,-0.27323 -0.43955,-0.27323 l -0.1368,0 0,-0.67366 0.1368,0 c 0.2138,10e-6 0.36031,-0.0895 0.43955,-0.26852 0.0807,-0.18214 0.1211,-0.5072 0.1211,-0.97515 l 0,-1.1306 c 0,-0.69406 0.0628,-1.15572 0.18837,-1.38499 0.12708,-0.2324 0.37676,-0.3486 0.74903,-0.34861 l 0.13904,0 0,0.67365 -0.1525,0 c -0.2108,1e-5 -0.34835,0.0691 -0.41263,0.20729 -0.0643,0.13818 -0.0964,0.42869 -0.0964,0.8715 l 0,1.1683 c -1e-5,0.49307 -0.0344,0.8511 -0.10316,1.07408 -0.0673,0.22298 -0.18315,0.37373 -0.3476,0.45224 0.16595,0.0848 0.28256,0.23869 0.34984,0.46166 0.0673,0.22298 0.10091,0.57944 0.10092,1.06937 l 0,1.16829 c -1e-5,0.44282 0.0322,0.73333 0.0964,0.87151 0.0643,0.13819 0.20183,0.20728 0.41263,0.20728 l 0.1525,0" />
    </g>
    <text
       sodipodi:linespacing="125%"
       id="text4003-6"
       y="242.56247"
       x="300.84915"
       style="font-size:15.695508px;font-style:normal;font-weight:normal;line-height:125%;letter-spacing:0px;word-spacing:0px;fill:#000000;fill-opacity:1;stroke:none;font-family:Sans"
       xml:space="preserve"><tspan
         style="font-style:normal;font-variant:normal;font-weight:normal;font-stretch:normal;font-family:Serif;-inkscape-font-specification:Serif"
         y="242.56247"
         x="300.84915"
         id="tspan4005-1"
         sodipodi:role="line">Oktav -1</tspan></text>
  </g>
  <g
     id="g4091"
     transform="translate(0,2.9664806)">
    <g
       transform="matrix(0,-13.079281,22.804183,0,-4574.1671,3424.8452)"
       id="text3996-4"
       style="font-size:10px;font-style:normal;font-weight:normal;line-height:125%;letter-spacing:0px;word-spacing:0px;fill:#000000;fill-opacity:1;stroke:none;font-family:Sans">
      <path
         inkscape:connector-curvature="0"
         id="path4001-3"
         d="m 247.2232,228.45205 0,0.67837 -0.13904,0 c -0.37227,0 -0.62195,-0.11621 -0.74903,-0.34861 -0.12558,-0.23241 -0.18837,-0.69564 -0.18837,-1.38971 l 0,-1.12589 c 0,-0.47423 -0.0404,-0.80242 -0.1211,-0.98457 -0.0807,-0.18215 -0.22725,-0.27323 -0.43955,-0.27323 l -0.1368,0 0,-0.67366 0.1368,0 c 0.2138,10e-6 0.36031,-0.0895 0.43955,-0.26852 0.0807,-0.18214 0.1211,-0.5072 0.1211,-0.97515 l 0,-1.1306 c 0,-0.69406 0.0628,-1.15572 0.18837,-1.38499 0.12708,-0.2324 0.37676,-0.3486 0.74903,-0.34861 l 0.13904,0 0,0.67365 -0.1525,0 c -0.2108,1e-5 -0.34835,0.0691 -0.41263,0.20729 -0.0643,0.13818 -0.0964,0.42869 -0.0964,0.8715 l 0,1.1683 c -1e-5,0.49307 -0.0344,0.8511 -0.10316,1.07408 -0.0673,0.22298 -0.18315,0.37373 -0.3476,0.45224 0.16595,0.0848 0.28256,0.23869 0.34984,0.46166 0.0673,0.22298 0.10091,0.57944 0.10092,1.06937 l 0,1.16829 c -1e-5,0.44282 0.0322,0.73333 0.0964,0.87151 0.0643,0.13819 0.20183,0.20728 0.41263,0.20728 l 0.1525,0" />
    </g>
    <text
       sodipodi:linespacing="125%"
       id="text4003-3"
       y="238.75127"
       x="516.18115"
       style="font-size:15.695508px;font-style:normal;font-weight:normal;line-height:125%;letter-spacing:0px;word-spacing:0px;fill:#000000;fill-opacity:1;stroke:none;font-family:Sans"
       xml:space="preserve"><tspan
         style="font-style:normal;font-variant:normal;font-weight:normal;font-stretch:normal;font-family:Serif;-inkscape-font-specification:Serif"
         y="238.75127"
         x="516.18115"
         id="tspan4005-3"
         sodipodi:role="line">Oktav 0</tspan></text>
  </g>
  <g
     id="g4085"
     transform="translate(0,-2.1151638)">
    <g
       transform="matrix(0,-13.079281,22.804183,0,-4358.8351,3429.9269)"
       id="text3996-0"
       style="font-size:10px;font-style:normal;font-weight:normal;line-height:125%;letter-spacing:0px;word-spacing:0px;fill:#000000;fill-opacity:1;stroke:none;font-family:Sans">
      <path
         inkscape:connector-curvature="0"
         id="path4001-5"
         d="m 247.2232,228.45205 0,0.67837 -0.13904,0 c -0.37227,0 -0.62195,-0.11621 -0.74903,-0.34861 -0.12558,-0.23241 -0.18837,-0.69564 -0.18837,-1.38971 l 0,-1.12589 c 0,-0.47423 -0.0404,-0.80242 -0.1211,-0.98457 -0.0807,-0.18215 -0.22725,-0.27323 -0.43955,-0.27323 l -0.1368,0 0,-0.67366 0.1368,0 c 0.2138,10e-6 0.36031,-0.0895 0.43955,-0.26852 0.0807,-0.18214 0.1211,-0.5072 0.1211,-0.97515 l 0,-1.1306 c 0,-0.69406 0.0628,-1.15572 0.18837,-1.38499 0.12708,-0.2324 0.37676,-0.3486 0.74903,-0.34861 l 0.13904,0 0,0.67365 -0.1525,0 c -0.2108,1e-5 -0.34835,0.0691 -0.41263,0.20729 -0.0643,0.13818 -0.0964,0.42869 -0.0964,0.8715 l 0,1.1683 c -1e-5,0.49307 -0.0344,0.8511 -0.10316,1.07408 -0.0673,0.22298 -0.18315,0.37373 -0.3476,0.45224 0.16595,0.0848 0.28256,0.23869 0.34984,0.46166 0.0673,0.22298 0.10091,0.57944 0.10092,1.06937 l 0,1.16829 c -1e-5,0.44282 0.0322,0.73333 0.0964,0.87151 0.0643,0.13819 0.20183,0.20728 0.41263,0.20728 l 0.1525,0" />
    </g>
    <text
       sodipodi:linespacing="125%"
       id="text4003-0"
       y="243.83286"
       x="731.51312"
       style="font-size:15.695508px;font-style:normal;font-weight:normal;line-height:125%;letter-spacing:0px;word-spacing:0px;fill:#000000;fill-opacity:1;stroke:none;font-family:Sans"
       xml:space="preserve"><tspan
         style="font-style:normal;font-variant:normal;font-weight:normal;font-stretch:normal;font-family:Serif;-inkscape-font-specification:Serif"
         y="243.83286"
         x="731.51312"
         id="tspan4005-7"
         sodipodi:role="line">Oktav 1</tspan></text>
  </g>
  <g
     id="g4079"
     transform="translate(0,-4.0207031)">
    <g
       transform="matrix(0,-13.079281,22.804183,0,-4139.0568,3431.8324)"
       id="text3996-9"
       style="font-size:10px;font-style:normal;font-weight:normal;line-height:125%;letter-spacing:0px;word-spacing:0px;fill:#000000;fill-opacity:1;stroke:none;font-family:Sans">
      <path
         inkscape:connector-curvature="0"
         id="path4001-39"
         d="m 247.2232,228.45205 0,0.67837 -0.13904,0 c -0.37227,0 -0.62195,-0.11621 -0.74903,-0.34861 -0.12558,-0.23241 -0.18837,-0.69564 -0.18837,-1.38971 l 0,-1.12589 c 0,-0.47423 -0.0404,-0.80242 -0.1211,-0.98457 -0.0807,-0.18215 -0.22725,-0.27323 -0.43955,-0.27323 l -0.1368,0 0,-0.67366 0.1368,0 c 0.2138,10e-6 0.36031,-0.0895 0.43955,-0.26852 0.0807,-0.18214 0.1211,-0.5072 0.1211,-0.97515 l 0,-1.1306 c 0,-0.69406 0.0628,-1.15572 0.18837,-1.38499 0.12708,-0.2324 0.37676,-0.3486 0.74903,-0.34861 l 0.13904,0 0,0.67365 -0.1525,0 c -0.2108,1e-5 -0.34835,0.0691 -0.41263,0.20729 -0.0643,0.13818 -0.0964,0.42869 -0.0964,0.8715 l 0,1.1683 c -1e-5,0.49307 -0.0344,0.8511 -0.10316,1.07408 -0.0673,0.22298 -0.18315,0.37373 -0.3476,0.45224 0.16595,0.0848 0.28256,0.23869 0.34984,0.46166 0.0673,0.22298 0.10091,0.57944 0.10092,1.06937 l 0,1.16829 c -1e-5,0.44282 0.0322,0.73333 0.0964,0.87151 0.0643,0.13819 0.20183,0.20728 0.41263,0.20728 l 0.1525,0" />
    </g>
    <text
       sodipodi:linespacing="125%"
       id="text4003-64"
       y="245.73843"
       x="951.29156"
       style="font-size:15.695508px;font-style:normal;font-weight:normal;line-height:125%;letter-spacing:0px;word-spacing:0px;fill:#000000;fill-opacity:1;stroke:none;font-family:Sans"
       xml:space="preserve"><tspan
         style="font-style:normal;font-variant:normal;font-weight:normal;font-stretch:normal;font-family:Serif;-inkscape-font-specification:Serif"
         y="245.73843"
         x="951.29156"
         id="tspan4005-37"
         sodipodi:role="line">Oktav 2</tspan></text>
  </g>
</svg>
